# Apple ModelIO OBJ File: my_cube
mtllib my_cube.mtl
g 
v -1 -1 1
v -1 1 1
v -1 1 -1
v -1 -1 -1
v 1 1 -1
v 1 -1 -1
v 1 1 1
v 1 -1 1
vn -1 -0 -0
vn -0 -0 -1
vn 1 -0 -0
vn -0 -0 1
vn -0 -1 -0
vn -0 1 -0
vt 0.375 0
vt 0.625 0
vt 0.625 0.25
vt 0.375 0.25
vt 0.625 0.5
vt 0.375 0.5
vt 0.625 0.75
vt 0.375 0.75
vt 0.625 1
vt 0.375 1
vt 0.125 0.5
vt 0.125 0.75
vt 0.875 0.5
vt 0.875 0.75
usemtl material_1
f 1/1/1 2/2/1 3/3/1 4/4/1 
f 4/4/2 3/3/2 5/5/2 6/6/2 
f 6/6/3 5/5/3 7/7/3 8/8/3 
f 8/8/4 7/7/4 2/9/4 1/10/4 
f 4/11/5 6/6/5 8/8/5 1/12/5 
f 5/5/6 3/13/6 2/14/6 7/7/6 
s off
